<svg id="kity_svg_6" xmlns="http://www.w3.org/2000/svg" xmlns:xlink="http://www.w3.org/1999/xlink" version="1.1" width="859" height="837" contenteditable="true" class="loading-target" style="font-family: Arial, &quot;Microsoft Yahei&quot;,  &quot;Heiti SC&quot;; background: #fbfbfb" viewBox="896 56 859 837"><defs id="kity_defs_7"><linearGradient id="kity_linearGradient_12" x1="0" y1="0" x2="0" y2="1"><stop id="kity_stop_13" offset="0" stop-color="rgb(255, 255, 255)"></stop><stop id="kity_stop_14" offset="1" stop-color="rgb(204, 204, 204)"></stop></linearGradient><marker id="kity_marker_2" orient="auto" refX="6" refY="0" viewBox="-7 -7 14 14" markerWidth="7" markerHeight="7" markerUnits="userSpaceOnUse"><path id="kity_path_3" fill="rgb(191, 115, 115)" stroke="none" d="M6,0A6,6,0,1,1,-6,0A6,6,0,1,1,6,0"></path></marker></defs><g id="kity_g_8" transform="translate(0.5, 0.5)"><g id="minder_1" text-rendering="optimize-speed" transform="translate( 928 471 )"><g id="minder_connect_group_1"><path id="kity_path_33" fill="none" stroke="rgb(191, 115, 115)" stroke-width="1" marker-end="url(#kity_marker_2)" d="M32 0A60,373,0,0,1,92 -373" transform="translate( 0 0 )"></path><path id="kity_path_35" fill="none" stroke="rgb(191, 115, 115)" stroke-width="1" d="M204,-373C212,-373,212,-386,220,-386" transform="translate( 0 0 )"></path><path id="kity_path_37" fill="none" stroke="rgb(191, 115, 115)" stroke-width="1" d="M204,-373C212,-373,212,-360,220,-360" transform="translate( 0 0 )"></path><path id="kity_path_39" fill="none" stroke="rgb(191, 115, 115)" stroke-width="1" marker-end="url(#kity_marker_2)" d="M32 0A60,287,0,0,1,92 -287" transform="translate( 0 0 )"></path><path id="kity_path_41" fill="none" stroke="rgb(191, 115, 115)" stroke-width="1" d="M274,-287C282,-287,282,-326,290,-326" transform="translate( 0 0 )"></path><path id="kity_path_43" fill="none" stroke="rgb(191, 115, 115)" stroke-width="1" d="M274,-287C282,-287,282,-248,290,-248" transform="translate( 0 0 )"></path><path id="kity_path_45" fill="none" stroke="rgb(191, 115, 115)" stroke-width="1" d="M324,-248C332,-248,332,-300,340,-300" transform="translate( 0 0 )"></path><path id="kity_path_47" fill="none" stroke="rgb(191, 115, 115)" stroke-width="1" d="M324,-248C332,-248,332,-274,340,-274" transform="translate( 0 0 )"></path><path id="kity_path_49" fill="none" stroke="rgb(191, 115, 115)" stroke-width="1" d="M324,-248C332,-248,332,-248,340,-248" transform="translate( 0 0 )"></path><path id="kity_path_51" fill="none" stroke="rgb(191, 115, 115)" stroke-width="1" d="M324,-248C332,-248,332,-222,340,-222" transform="translate( 0 0 )"></path><path id="kity_path_53" fill="none" stroke="rgb(191, 115, 115)" stroke-width="1" d="M324,-248C332,-248,332,-196,340,-196" transform="translate( 0 0 )"></path><path id="kity_path_55" fill="none" stroke="rgb(191, 115, 115)" stroke-width="1" marker-end="url(#kity_marker_2)" d="M32 0A60,33,0,0,0,92 33" transform="translate( 0 0 )"></path><path id="kity_path_57" fill="none" stroke="rgb(191, 115, 115)" stroke-width="1" d="M246,33C254,33,254,-110,262,-110" transform="translate( 0 0 )"></path><path id="kity_path_59" fill="none" stroke="rgb(191, 115, 115)" stroke-width="1" d="M373,-110C381,-110,381,-162,389,-162" transform="translate( 0 0 )"></path><path id="kity_path_61" fill="none" stroke="rgb(191, 115, 115)" stroke-width="1" d="M373,-110C381,-110,381,-136,389,-136" transform="translate( 0 0 )"></path><path id="kity_path_63" fill="none" stroke="rgb(191, 115, 115)" stroke-width="1" d="M373,-110C381,-110,381,-110,389,-110" transform="translate( 0 0 )"></path><path id="kity_path_65" fill="none" stroke="rgb(191, 115, 115)" stroke-width="1" d="M373,-110C381,-110,381,-84,389,-84" transform="translate( 0 0 )"></path><path id="kity_path_67" fill="none" stroke="rgb(191, 115, 115)" stroke-width="1" d="M373,-110C381,-110,381,-58,389,-58" transform="translate( 0 0 )"></path><path id="kity_path_69" fill="none" stroke="rgb(191, 115, 115)" stroke-width="1" d="M246,33C254,33,254,1,262,1" transform="translate( 0 0 )"></path><path id="kity_path_71" fill="none" stroke="rgb(191, 115, 115)" stroke-width="1" d="M398,1C406,1,406,-31,414,-31" transform="translate( 0 0 )"></path><path id="kity_path_73" fill="none" stroke="rgb(191, 115, 115)" stroke-width="1" d="M398,1C406,1,406,-5,414,-5" transform="translate( 0 0 )"></path><path id="kity_path_75" fill="none" stroke="rgb(191, 115, 115)" stroke-width="1" d="M398,1C406,1,406,34,414,34" transform="translate( 0 0 )"></path><path id="kity_path_77" fill="none" stroke="rgb(191, 115, 115)" stroke-width="1" d="M540,34C548,34,548,21,556,21" transform="translate( 0 0 )"></path><path id="kity_path_79" fill="none" stroke="rgb(191, 115, 115)" stroke-width="1" d="M540,34C548,34,548,47,556,47" transform="translate( 0 0 )"></path><path id="kity_path_81" fill="none" stroke="rgb(191, 115, 115)" stroke-width="1" d="M246,33C254,33,254,176,262,176" transform="translate( 0 0 )"></path><path id="kity_path_83" fill="none" stroke="rgb(191, 115, 115)" stroke-width="1" d="M344,176C352,176,352,72,360,72" transform="translate( 0 0 )"></path><path id="kity_path_85" fill="none" stroke="rgb(191, 115, 115)" stroke-width="1" d="M344,176C352,176,352,137,360,137" transform="translate( 0 0 )"></path><path id="kity_path_87" fill="none" stroke="rgb(191, 115, 115)" stroke-width="1" d="M402,137C410,137,410,98,418,98" transform="translate( 0 0 )"></path><path id="kity_path_89" fill="none" stroke="rgb(191, 115, 115)" stroke-width="1" d="M402,137C410,137,410,124,418,124" transform="translate( 0 0 )"></path><path id="kity_path_91" fill="none" stroke="rgb(191, 115, 115)" stroke-width="1" d="M402,137C410,137,410,150,418,150" transform="translate( 0 0 )"></path><path id="kity_path_93" fill="none" stroke="rgb(191, 115, 115)" stroke-width="1" d="M402,137C410,137,410,176,418,176" transform="translate( 0 0 )"></path><path id="kity_path_95" fill="none" stroke="rgb(191, 115, 115)" stroke-width="1" d="M344,176C352,176,352,215,360,215" transform="translate( 0 0 )"></path><path id="kity_path_97" fill="none" stroke="rgb(191, 115, 115)" stroke-width="1" d="M639,215C647,215,647,202,655,202" transform="translate( 0 0 )"></path><path id="kity_path_99" fill="none" stroke="rgb(191, 115, 115)" stroke-width="1" d="M639,215C647,215,647,228,655,228" transform="translate( 0 0 )"></path><path id="kity_path_101" fill="none" stroke="rgb(191, 115, 115)" stroke-width="1" d="M344,176C352,176,352,280,360,280" transform="translate( 0 0 )"></path><path id="kity_path_103" fill="none" stroke="rgb(191, 115, 115)" stroke-width="1" d="M661,280C669,280,669,254,677,254" transform="translate( 0 0 )"></path><path id="kity_path_105" fill="none" stroke="rgb(191, 115, 115)" stroke-width="1" d="M661,280C669,280,669,280,677,280" transform="translate( 0 0 )"></path><path id="kity_path_107" fill="none" stroke="rgb(191, 115, 115)" stroke-width="1" d="M661,280C669,280,669,306,677,306" transform="translate( 0 0 )"></path><path id="kity_path_109" fill="none" stroke="rgb(191, 115, 115)" stroke-width="1" marker-end="url(#kity_marker_2)" d="M32 0A60,373,0,0,0,92 373" transform="translate( 0 0 )"></path><path id="kity_path_111" fill="none" stroke="rgb(191, 115, 115)" stroke-width="1" d="M218,373C226,373,226,354,234,354" transform="translate( 0 0 )"></path><path id="kity_path_113" fill="none" stroke="rgb(191, 115, 115)" stroke-width="1" d="M348,354C356,354,356,341,364,341" transform="translate( 0 0 )"></path><path id="kity_path_115" fill="none" stroke="rgb(191, 115, 115)" stroke-width="1" d="M348,354C356,354,356,367,364,367" transform="translate( 0 0 )"></path><path id="kity_path_117" fill="none" stroke="rgb(191, 115, 115)" stroke-width="1" d="M218,373C226,373,226,393,234,393" transform="translate( 0 0 )"></path><path id="kity_path_119" fill="none" stroke="rgb(191, 115, 115)" stroke-width="1" d="M336,393C344,393,344,393,352,393" transform="translate( 0 0 )"></path></g><g id="minder_node_1" transform="matrix( 1 0 0 1 0 0 )"><path id="node_outline_1" fill="rgb(191, 115, 115)" stroke="rgb(191, 115, 115)" d="M-7,-14h78a5,5,0,0,1,5,5v18a5,5,0,0,1,-5,5h-78a5,5,0,0,1,-5,-5v-18a5,5,0,0,1,5,-5z"></path><g id="node_text_1" transform="translate( 0 -2.4 )" fill="white"><text id="kity_text_22" text-rendering="inherit" dominant-baseline="text-before-edge" dy="0" font-size="16" y="-8">异步编程</text></g></g><g id="kity_g_15"><path id="kity_path_16" fill="none" stroke="none" d="M0,0h0v0h0z"></path></g><g id="kity_g_17"><path id="kity_path_18" fill="none" stroke="none" d="M0,0h0v0h0z"></path><path id="kity_path_19" fill="none" stroke="none"></path></g><g id="minder_node_4" transform="matrix( 1 0 0 1 114 -373 )"><g id="node_expander_3" transform="translate( -27 0 )" style="cursor: pointer;"><path id="kity_path_259" fill="white" stroke="gray" d="M6,0A6,6,0,1,1,-6,0A6,6,0,1,1,6,0"></path><path id="kity_path_260" fill="none" stroke="gray" d="M-4.5,0L4.5,0"></path></g><path id="node_outline_4" fill="rgb(246, 238, 238)" stroke="rgb(191, 115, 115)" d="M-17,-13h104a3,3,0,0,1,3,3v20a3,3,0,0,1,-3,3h-104a3,3,0,0,1,-3,-3v-20a3,3,0,0,1,3,-3z" stroke-width="1"></path><g id="node_text_4" transform="translate( 0 -2.1 )" fill="black"><text id="kity_text_125" text-rendering="inherit" dominant-baseline="text-before-edge" dy="0" font-size="14" y="-7">函数式编程</text></g></g><g id="minder_node_5" transform="matrix( 1 0 0 1 225 -386 )"><g id="node_expander_1" display="none" transform="translate( -11 0 )" style="cursor: pointer;"><path id="kity_path_253" fill="white" stroke="gray" d="M6,0A6,6,0,1,1,-6,0A6,6,0,1,1,6,0"></path><path id="kity_path_254" fill="none" stroke="gray"></path></g><path id="node_outline_2" fill="transparent" stroke="none" d="M0,-9h192a5,5,0,0,1,5,5v8a5,5,0,0,1,-5,5h-192a5,5,0,0,1,-5,-5v-8a5,5,0,0,1,5,-5z"></path><g id="node_text_2" transform="translate( 0 -1.7999999999999998 )" fill="black"><text id="kity_text_121" text-rendering="inherit" dominant-baseline="text-before-edge" dy="0" font-size="12" y="-6">高阶函数：把函数作为输入或者返回</text></g></g><g id="minder_node_6" transform="matrix( 1 0 0 1 225 -360 )"><g id="node_expander_2" display="none" transform="translate( -11 0 )" style="cursor: pointer;"><path id="kity_path_256" fill="white" stroke="gray" d="M6,0A6,6,0,1,1,-6,0A6,6,0,1,1,6,0"></path><path id="kity_path_257" fill="none" stroke="gray"></path></g><path id="node_outline_3" fill="transparent" stroke="none" d="M0,-9h441a5,5,0,0,1,5,5v8a5,5,0,0,1,-5,5h-441a5,5,0,0,1,-5,-5v-8a5,5,0,0,1,5,-5z"></path><g id="node_text_3" transform="translate( 0 -1.7999999999999998 )" fill="black"><text id="kity_text_123" text-rendering="inherit" dominant-baseline="text-before-edge" dy="0" font-size="12" y="-6">偏函数用法：创建一个调用另外一部分--参量或变量已经预置的函数--的函数的用法</text></g></g><g id="minder_node_7" transform="matrix( 1 0 0 1 114 -287 )"><g id="node_expander_11" transform="translate( -27 0 )" style="cursor: pointer;"><path id="kity_path_283" fill="white" stroke="gray" d="M6,0A6,6,0,1,1,-6,0A6,6,0,1,1,6,0"></path><path id="kity_path_284" fill="none" stroke="gray" d="M-4.5,0L4.5,0"></path></g><path id="node_outline_12" fill="rgb(246, 238, 238)" stroke="rgb(191, 115, 115)" d="M-17,-13h174a3,3,0,0,1,3,3v20a3,3,0,0,1,-3,3h-174a3,3,0,0,1,-3,-3v-20a3,3,0,0,1,3,-3z" stroke-width="1"></path><g id="node_text_12" transform="translate( 0 -2.1 )" fill="black"><text id="kity_text_141" text-rendering="inherit" dominant-baseline="text-before-edge" dy="0" font-size="14" y="-7">异步编程的优势与难点</text></g></g><g id="minder_node_8" transform="matrix( 1 0 0 1 295 -326 )"><g id="node_expander_4" display="none" transform="translate( -11 0 )" style="cursor: pointer;"><path id="kity_path_262" fill="white" stroke="gray" d="M6,0A6,6,0,1,1,-6,0A6,6,0,1,1,6,0"></path><path id="kity_path_263" fill="none" stroke="gray"></path></g><path id="node_outline_5" fill="transparent" stroke="none" d="M0,-9h198a5,5,0,0,1,5,5v8a5,5,0,0,1,-5,5h-198a5,5,0,0,1,-5,-5v-8a5,5,0,0,1,5,-5z"></path><g id="node_text_5" transform="translate( 0 -1.7999999999999998 )" fill="black"><text id="kity_text_127" text-rendering="inherit" dominant-baseline="text-before-edge" dy="0" font-size="12" y="-6">优势：基于事件驱动的非阻塞I/O模型</text></g></g><g id="minder_node_9" transform="matrix( 1 0 0 1 295 -248 )"><g id="node_expander_10" transform="translate( -11 0 )" style="cursor: pointer;"><path id="kity_path_280" fill="white" stroke="gray" d="M6,0A6,6,0,1,1,-6,0A6,6,0,1,1,6,0"></path><path id="kity_path_281" fill="none" stroke="gray" d="M-4.5,0L4.5,0"></path></g><path id="node_outline_11" fill="transparent" stroke="none" d="M0,-9h24a5,5,0,0,1,5,5v8a5,5,0,0,1,-5,5h-24a5,5,0,0,1,-5,-5v-8a5,5,0,0,1,5,-5z"></path><g id="node_text_11" transform="translate( 0 -1.7999999999999998 )" fill="black"><text id="kity_text_139" text-rendering="inherit" dominant-baseline="text-before-edge" dy="0" font-size="12" y="-6">难点</text></g></g><g id="minder_node_10" transform="matrix( 1 0 0 1 345 -300 )"><g id="node_expander_5" display="none" transform="translate( -11 0 )" style="cursor: pointer;"><path id="kity_path_265" fill="white" stroke="gray" d="M6,0A6,6,0,1,1,-6,0A6,6,0,1,1,6,0"></path><path id="kity_path_266" fill="none" stroke="gray"></path></g><path id="node_outline_6" fill="transparent" stroke="none" d="M0,-9h48a5,5,0,0,1,5,5v8a5,5,0,0,1,-5,5h-48a5,5,0,0,1,-5,-5v-8a5,5,0,0,1,5,-5z"></path><g id="node_text_6" transform="translate( 0 -1.7999999999999998 )" fill="black"><text id="kity_text_129" text-rendering="inherit" dominant-baseline="text-before-edge" dy="0" font-size="12" y="-6">异常处理</text></g></g><g id="minder_node_11" transform="matrix( 1 0 0 1 345 -274 )"><g id="node_expander_6" display="none" transform="translate( -11 0 )" style="cursor: pointer;"><path id="kity_path_268" fill="white" stroke="gray" d="M6,0A6,6,0,1,1,-6,0A6,6,0,1,1,6,0"></path><path id="kity_path_269" fill="none" stroke="gray"></path></g><path id="node_outline_7" fill="transparent" stroke="none" d="M0,-9h72a5,5,0,0,1,5,5v8a5,5,0,0,1,-5,5h-72a5,5,0,0,1,-5,-5v-8a5,5,0,0,1,5,-5z"></path><g id="node_text_7" transform="translate( 0 -1.7999999999999998 )" fill="black"><text id="kity_text_131" text-rendering="inherit" dominant-baseline="text-before-edge" dy="0" font-size="12" y="-6">函数嵌套过深</text></g></g><g id="minder_node_12" transform="matrix( 1 0 0 1 345 -248 )"><g id="node_expander_7" display="none" transform="translate( -11 0 )" style="cursor: pointer;"><path id="kity_path_271" fill="white" stroke="gray" d="M6,0A6,6,0,1,1,-6,0A6,6,0,1,1,6,0"></path><path id="kity_path_272" fill="none" stroke="gray"></path></g><path id="node_outline_8" fill="transparent" stroke="none" d="M0,-9h48a5,5,0,0,1,5,5v8a5,5,0,0,1,-5,5h-48a5,5,0,0,1,-5,-5v-8a5,5,0,0,1,5,-5z"></path><g id="node_text_8" transform="translate( 0 -1.7999999999999998 )" fill="black"><text id="kity_text_133" text-rendering="inherit" dominant-baseline="text-before-edge" dy="0" font-size="12" y="-6">阻塞代码</text></g></g><g id="minder_node_13" transform="matrix( 1 0 0 1 345 -222 )"><g id="node_expander_8" display="none" transform="translate( -11 0 )" style="cursor: pointer;"><path id="kity_path_274" fill="white" stroke="gray" d="M6,0A6,6,0,1,1,-6,0A6,6,0,1,1,6,0"></path><path id="kity_path_275" fill="none" stroke="gray"></path></g><path id="node_outline_9" fill="transparent" stroke="none" d="M0,-9h60a5,5,0,0,1,5,5v8a5,5,0,0,1,-5,5h-60a5,5,0,0,1,-5,-5v-8a5,5,0,0,1,5,-5z"></path><g id="node_text_9" transform="translate( 0 -1.7999999999999998 )" fill="black"><text id="kity_text_135" text-rendering="inherit" dominant-baseline="text-before-edge" dy="0" font-size="12" y="-6">多线程编程</text></g></g><g id="minder_node_14" transform="matrix( 1 0 0 1 345 -196 )"><g id="node_expander_9" display="none" transform="translate( -11 0 )" style="cursor: pointer;"><path id="kity_path_277" fill="white" stroke="gray" d="M6,0A6,6,0,1,1,-6,0A6,6,0,1,1,6,0"></path><path id="kity_path_278" fill="none" stroke="gray"></path></g><path id="node_outline_10" fill="transparent" stroke="none" d="M0,-9h60a5,5,0,0,1,5,5v8a5,5,0,0,1,-5,5h-60a5,5,0,0,1,-5,-5v-8a5,5,0,0,1,5,-5z"></path><g id="node_text_10" transform="translate( 0 -1.7999999999999998 )" fill="black"><text id="kity_text_137" text-rendering="inherit" dominant-baseline="text-before-edge" dy="0" font-size="12" y="-6">异步转同步</text></g></g><g id="minder_node_15" transform="matrix( 1 0 0 1 114 33 )"><g id="node_expander_38" transform="translate( -27 0 )" style="cursor: pointer;"><path id="kity_path_364" fill="white" stroke="gray" d="M6,0A6,6,0,1,1,-6,0A6,6,0,1,1,6,0"></path><path id="kity_path_365" fill="none" stroke="gray" d="M-4.5,0L4.5,0"></path></g><path id="node_outline_39" fill="rgb(246, 238, 238)" stroke="rgb(191, 115, 115)" d="M-17,-13h146a3,3,0,0,1,3,3v20a3,3,0,0,1,-3,3h-146a3,3,0,0,1,-3,-3v-20a3,3,0,0,1,3,-3z" stroke-width="1"></path><g id="node_text_39" transform="translate( 0 -2.1 )" fill="black"><text id="kity_text_195" text-rendering="inherit" dominant-baseline="text-before-edge" dy="0" font-size="14" y="-7">异步编程解决方案</text></g></g><g id="minder_node_16" transform="matrix( 1 0 0 1 267 -110 )"><g id="node_expander_17" transform="translate( -11 0 )" style="cursor: pointer;"><path id="kity_path_301" fill="white" stroke="gray" d="M6,0A6,6,0,1,1,-6,0A6,6,0,1,1,6,0"></path><path id="kity_path_302" fill="none" stroke="gray" d="M-4.5,0L4.5,0"></path></g><path id="node_outline_18" fill="transparent" stroke="none" d="M0,-9h101a5,5,0,0,1,5,5v8a5,5,0,0,1,-5,5h-101a5,5,0,0,1,-5,-5v-8a5,5,0,0,1,5,-5z"></path><g id="node_text_18" transform="translate( 0 -1.7999999999999998 )" fill="black"><text id="kity_text_153" text-rendering="inherit" dominant-baseline="text-before-edge" dy="0" font-size="12" y="-6">事件发布/订阅模式</text></g></g><g id="minder_node_17" transform="matrix( 1 0 0 1 394 -162 )"><g id="node_expander_12" display="none" transform="translate( -11 0 )" style="cursor: pointer;"><path id="kity_path_286" fill="white" stroke="gray" d="M6,0A6,6,0,1,1,-6,0A6,6,0,1,1,6,0"></path><path id="kity_path_287" fill="none" stroke="gray"></path></g><path id="node_outline_13" fill="transparent" stroke="none" d="M0,-9h95a5,5,0,0,1,5,5v8a5,5,0,0,1,-5,5h-95a5,5,0,0,1,-5,-5v-8a5,5,0,0,1,5,-5z"></path><g id="node_text_13" transform="translate( 0 -1.7999999999999998 )" fill="black"><text id="kity_text_143" text-rendering="inherit" dominant-baseline="text-before-edge" dy="0" font-size="12" y="-6">1.继承events模块</text></g></g><g id="minder_node_18" transform="matrix( 1 0 0 1 394 -136 )"><g id="node_expander_13" display="none" transform="translate( -11 0 )" style="cursor: pointer;"><path id="kity_path_289" fill="white" stroke="gray" d="M6,0A6,6,0,1,1,-6,0A6,6,0,1,1,6,0"></path><path id="kity_path_290" fill="none" stroke="gray"></path></g><path id="node_outline_14" fill="transparent" stroke="none" d="M0,-9h154a5,5,0,0,1,5,5v8a5,5,0,0,1,-5,5h-154a5,5,0,0,1,-5,-5v-8a5,5,0,0,1,5,-5z"></path><g id="node_text_14" transform="translate( 0 -1.7999999999999998 )" fill="black"><text id="kity_text_145" text-rendering="inherit" dominant-baseline="text-before-edge" dy="0" font-size="12" y="-6">2.利用事件队列解决雪崩问题</text></g></g><g id="minder_node_19" transform="matrix( 1 0 0 1 394 -110 )"><g id="node_expander_14" display="none" transform="translate( -11 0 )" style="cursor: pointer;"><path id="kity_path_292" fill="white" stroke="gray" d="M6,0A6,6,0,1,1,-6,0A6,6,0,1,1,6,0"></path><path id="kity_path_293" fill="none" stroke="gray"></path></g><path id="node_outline_15" fill="transparent" stroke="none" d="M0,-9h130a5,5,0,0,1,5,5v8a5,5,0,0,1,-5,5h-130a5,5,0,0,1,-5,-5v-8a5,5,0,0,1,5,-5z"></path><g id="node_text_15" transform="translate( 0 -1.7999999999999998 )" fill="black"><text id="kity_text_147" text-rendering="inherit" dominant-baseline="text-before-edge" dy="0" font-size="12" y="-6">3.多异步之间的协作方案</text></g></g><g id="minder_node_20" transform="matrix( 1 0 0 1 394 -84 )"><g id="node_expander_15" display="none" transform="translate( -11 0 )" style="cursor: pointer;"><path id="kity_path_295" fill="white" stroke="gray" d="M6,0A6,6,0,1,1,-6,0A6,6,0,1,1,6,0"></path><path id="kity_path_296" fill="none" stroke="gray"></path></g><path id="node_outline_16" fill="transparent" stroke="none" d="M0,-9h109a5,5,0,0,1,5,5v8a5,5,0,0,1,-5,5h-109a5,5,0,0,1,-5,-5v-8a5,5,0,0,1,5,-5z"></path><g id="node_text_16" transform="translate( 0 -1.7999999999999998 )" fill="black"><text id="kity_text_149" text-rendering="inherit" dominant-baseline="text-before-edge" dy="0" font-size="12" y="-6">4.EventProxy的原理</text></g></g><g id="minder_node_21" transform="matrix( 1 0 0 1 394 -58 )"><g id="node_expander_16" display="none" transform="translate( -11 0 )" style="cursor: pointer;"><path id="kity_path_298" fill="white" stroke="gray" d="M6,0A6,6,0,1,1,-6,0A6,6,0,1,1,6,0"></path><path id="kity_path_299" fill="none" stroke="gray"></path></g><path id="node_outline_17" fill="transparent" stroke="none" d="M0,-9h137a5,5,0,0,1,5,5v8a5,5,0,0,1,-5,5h-137a5,5,0,0,1,-5,-5v-8a5,5,0,0,1,5,-5z"></path><g id="node_text_17" transform="translate( 0 -1.7999999999999998 )" fill="black"><text id="kity_text_151" text-rendering="inherit" dominant-baseline="text-before-edge" dy="0" font-size="12" y="-6">5.EventProxy 的异常处理</text></g></g><g id="minder_node_22" transform="matrix( 1 0 0 1 267 1 )"><g id="node_expander_23" transform="translate( -11 0 )" style="cursor: pointer;"><path id="kity_path_319" fill="white" stroke="gray" d="M6,0A6,6,0,1,1,-6,0A6,6,0,1,1,6,0"></path><path id="kity_path_320" fill="none" stroke="gray" d="M-4.5,0L4.5,0"></path></g><path id="node_outline_24" fill="transparent" stroke="none" d="M0,-9h126a5,5,0,0,1,5,5v8a5,5,0,0,1,-5,5h-126a5,5,0,0,1,-5,-5v-8a5,5,0,0,1,5,-5z"></path><g id="node_text_24" transform="translate( 0 -1.7999999999999998 )" fill="black"><text id="kity_text_165" text-rendering="inherit" dominant-baseline="text-before-edge" dy="0" font-size="12" y="-6">Promise/Deferred模式</text></g></g><g id="minder_node_23" transform="matrix( 1 0 0 1 419 -31 )"><g id="node_expander_18" display="none" transform="translate( -11 0 )" style="cursor: pointer;"><path id="kity_path_304" fill="white" stroke="gray" d="M6,0A6,6,0,1,1,-6,0A6,6,0,1,1,6,0"></path><path id="kity_path_305" fill="none" stroke="gray"></path></g><path id="node_outline_19" fill="transparent" stroke="none" d="M0,-9h70a5,5,0,0,1,5,5v8a5,5,0,0,1,-5,5h-70a5,5,0,0,1,-5,-5v-8a5,5,0,0,1,5,-5z"></path><g id="node_text_19" transform="translate( 0 -1.7999999999999998 )" fill="black"><text id="kity_text_155" text-rendering="inherit" dominant-baseline="text-before-edge" dy="0" font-size="12" y="-6">1.Promise/A</text></g></g><g id="minder_node_24" transform="matrix( 1 0 0 1 419 -5 )"><g id="node_expander_19" display="none" transform="translate( -11 0 )" style="cursor: pointer;"><path id="kity_path_307" fill="white" stroke="gray" d="M6,0A6,6,0,1,1,-6,0A6,6,0,1,1,6,0"></path><path id="kity_path_308" fill="none" stroke="gray"></path></g><path id="node_outline_20" fill="transparent" stroke="none" d="M0,-9h128a5,5,0,0,1,5,5v8a5,5,0,0,1,-5,5h-128a5,5,0,0,1,-5,-5v-8a5,5,0,0,1,5,-5z"></path><g id="node_text_20" transform="translate( 0 -1.7999999999999998 )" fill="black"><text id="kity_text_157" text-rendering="inherit" dominant-baseline="text-before-edge" dy="0" font-size="12" y="-6">2.Promise中多异步协作</text></g></g><g id="minder_node_25" transform="matrix( 1 0 0 1 419 34 )"><g id="node_expander_22" transform="translate( -11 0 )" style="cursor: pointer;"><path id="kity_path_316" fill="white" stroke="gray" d="M6,0A6,6,0,1,1,-6,0A6,6,0,1,1,6,0"></path><path id="kity_path_317" fill="none" stroke="gray" d="M-4.5,0L4.5,0"></path></g><path id="node_outline_23" fill="transparent" stroke="none" d="M0,-9h116a5,5,0,0,1,5,5v8a5,5,0,0,1,-5,5h-116a5,5,0,0,1,-5,-5v-8a5,5,0,0,1,5,-5z"></path><g id="node_text_23" transform="translate( 0 -1.7999999999999998 )" fill="black"><text id="kity_text_163" text-rendering="inherit" dominant-baseline="text-before-edge" dy="0" font-size="12" y="-6">3.Promise的进阶知识</text></g></g><g id="minder_node_26" transform="matrix( 1 0 0 1 561 21 )"><g id="node_expander_20" display="none" transform="translate( -11 0 )" style="cursor: pointer;"><path id="kity_path_310" fill="white" stroke="gray" d="M6,0A6,6,0,1,1,-6,0A6,6,0,1,1,6,0"></path><path id="kity_path_311" fill="none" stroke="gray"></path></g><path id="node_outline_21" fill="transparent" stroke="none" d="M0,-9h130a5,5,0,0,1,5,5v8a5,5,0,0,1,-5,5h-130a5,5,0,0,1,-5,-5v-8a5,5,0,0,1,5,-5z"></path><g id="node_text_21" transform="translate( 0 -1.7999999999999998 )" fill="black"><text id="kity_text_159" text-rendering="inherit" dominant-baseline="text-before-edge" dy="0" font-size="12" y="-6">支持序列执行的Promise</text></g></g><g id="minder_node_27" transform="matrix( 1 0 0 1 561 47 )"><g id="node_expander_21" display="none" transform="translate( -11 0 )" style="cursor: pointer;"><path id="kity_path_313" fill="white" stroke="gray" d="M6,0A6,6,0,1,1,-6,0A6,6,0,1,1,6,0"></path><path id="kity_path_314" fill="none" stroke="gray"></path></g><path id="node_outline_22" fill="transparent" stroke="none" d="M0,-9h97a5,5,0,0,1,5,5v8a5,5,0,0,1,-5,5h-97a5,5,0,0,1,-5,-5v-8a5,5,0,0,1,5,-5z"></path><g id="node_text_22" transform="translate( 0 -1.7999999999999998 )" fill="black"><text id="kity_text_161" text-rendering="inherit" dominant-baseline="text-before-edge" dy="0" font-size="12" y="-6">将API &#xa0;Promise化</text></g></g><g id="minder_node_28" transform="matrix( 1 0 0 1 267 176 )"><g id="node_expander_37" transform="translate( -11 0 )" style="cursor: pointer;"><path id="kity_path_361" fill="white" stroke="gray" d="M6,0A6,6,0,1,1,-6,0A6,6,0,1,1,6,0"></path><path id="kity_path_362" fill="none" stroke="gray" d="M-4.5,0L4.5,0"></path></g><path id="node_outline_38" fill="transparent" stroke="none" d="M0,-9h72a5,5,0,0,1,5,5v8a5,5,0,0,1,-5,5h-72a5,5,0,0,1,-5,-5v-8a5,5,0,0,1,5,-5z"></path><g id="node_text_38" transform="translate( 0 -1.7999999999999998 )" fill="black"><text id="kity_text_193" text-rendering="inherit" dominant-baseline="text-before-edge" dy="0" font-size="12" y="-6">流程化控制库</text></g></g><g id="minder_node_29" transform="matrix( 1 0 0 1 365 72 )"><g id="node_expander_24" display="none" transform="translate( -11 0 )" style="cursor: pointer;"><path id="kity_path_322" fill="white" stroke="gray" d="M6,0A6,6,0,1,1,-6,0A6,6,0,1,1,6,0"></path><path id="kity_path_323" fill="none" stroke="gray"></path></g><path id="node_outline_25" fill="transparent" stroke="none" d="M0,-9h75a5,5,0,0,1,5,5v8a5,5,0,0,1,-5,5h-75a5,5,0,0,1,-5,-5v-8a5,5,0,0,1,5,-5z"></path><g id="node_text_25" transform="translate( 0 -1.7999999999999998 )" fill="black"><text id="kity_text_167" text-rendering="inherit" dominant-baseline="text-before-edge" dy="0" font-size="12" y="-6">尾触发与Next</text></g></g><g id="minder_node_30" transform="matrix( 1 0 0 1 365 137 )"><g id="node_expander_29" transform="translate( -11 0 )" style="cursor: pointer;"><path id="kity_path_337" fill="white" stroke="gray" d="M6,0A6,6,0,1,1,-6,0A6,6,0,1,1,6,0"></path><path id="kity_path_338" fill="none" stroke="gray" d="M-4.5,0L4.5,0"></path></g><path id="node_outline_30" fill="transparent" stroke="none" d="M0,-9h32a5,5,0,0,1,5,5v8a5,5,0,0,1,-5,5h-32a5,5,0,0,1,-5,-5v-8a5,5,0,0,1,5,-5z"></path><g id="node_text_30" transform="translate( 0 -1.7999999999999998 )" fill="black"><text id="kity_text_177" text-rendering="inherit" dominant-baseline="text-before-edge" dy="0" font-size="12" y="-6">async</text></g></g><g id="minder_node_31" transform="matrix( 1 0 0 1 423 98 )"><g id="node_expander_25" display="none" transform="translate( -11 0 )" style="cursor: pointer;"><path id="kity_path_325" fill="white" stroke="gray" d="M6,0A6,6,0,1,1,-6,0A6,6,0,1,1,6,0"></path><path id="kity_path_326" fill="none" stroke="gray"></path></g><path id="node_outline_26" fill="transparent" stroke="none" d="M0,-9h84a5,5,0,0,1,5,5v8a5,5,0,0,1,-5,5h-84a5,5,0,0,1,-5,-5v-8a5,5,0,0,1,5,-5z"></path><g id="node_text_26" transform="translate( 0 -1.7999999999999998 )" fill="black"><text id="kity_text_169" text-rendering="inherit" dominant-baseline="text-before-edge" dy="0" font-size="12" y="-6">异步的串行执行</text></g></g><g id="minder_node_32" transform="matrix( 1 0 0 1 423 124 )"><g id="node_expander_26" display="none" transform="translate( -11 0 )" style="cursor: pointer;"><path id="kity_path_328" fill="white" stroke="gray" d="M6,0A6,6,0,1,1,-6,0A6,6,0,1,1,6,0"></path><path id="kity_path_329" fill="none" stroke="gray"></path></g><path id="node_outline_27" fill="transparent" stroke="none" d="M0,-9h84a5,5,0,0,1,5,5v8a5,5,0,0,1,-5,5h-84a5,5,0,0,1,-5,-5v-8a5,5,0,0,1,5,-5z"></path><g id="node_text_27" transform="translate( 0 -1.7999999999999998 )" fill="black"><text id="kity_text_171" text-rendering="inherit" dominant-baseline="text-before-edge" dy="0" font-size="12" y="-6">异步的并行执行</text></g></g><g id="minder_node_33" transform="matrix( 1 0 0 1 423 150 )"><g id="node_expander_27" display="none" transform="translate( -11 0 )" style="cursor: pointer;"><path id="kity_path_331" fill="white" stroke="gray" d="M6,0A6,6,0,1,1,-6,0A6,6,0,1,1,6,0"></path><path id="kity_path_332" fill="none" stroke="gray"></path></g><path id="node_outline_28" fill="transparent" stroke="none" d="M0,-9h108a5,5,0,0,1,5,5v8a5,5,0,0,1,-5,5h-108a5,5,0,0,1,-5,-5v-8a5,5,0,0,1,5,-5z"></path><g id="node_text_28" transform="translate( 0 -1.7999999999999998 )" fill="black"><text id="kity_text_173" text-rendering="inherit" dominant-baseline="text-before-edge" dy="0" font-size="12" y="-6">异步调用的依赖处理</text></g></g><g id="minder_node_34" transform="matrix( 1 0 0 1 423 176 )"><g id="node_expander_28" display="none" transform="translate( -11 0 )" style="cursor: pointer;"><path id="kity_path_334" fill="white" stroke="gray" d="M6,0A6,6,0,1,1,-6,0A6,6,0,1,1,6,0"></path><path id="kity_path_335" fill="none" stroke="gray"></path></g><path id="node_outline_29" fill="transparent" stroke="none" d="M0,-9h72a5,5,0,0,1,5,5v8a5,5,0,0,1,-5,5h-72a5,5,0,0,1,-5,-5v-8a5,5,0,0,1,5,-5z"></path><g id="node_text_29" transform="translate( 0 -1.7999999999999998 )" fill="black"><text id="kity_text_175" text-rendering="inherit" dominant-baseline="text-before-edge" dy="0" font-size="12" y="-6">自动依赖处理</text></g></g><g id="minder_node_35" transform="matrix( 1 0 0 1 365 215 )"><g id="node_expander_32" transform="translate( -11 0 )" style="cursor: pointer;"><path id="kity_path_346" fill="white" stroke="gray" d="M6,0A6,6,0,1,1,-6,0A6,6,0,1,1,6,0"></path><path id="kity_path_347" fill="none" stroke="gray" d="M-4.5,0L4.5,0"></path></g><path id="node_outline_33" fill="transparent" stroke="none" d="M0,-9h269a5,5,0,0,1,5,5v8a5,5,0,0,1,-5,5h-269a5,5,0,0,1,-5,-5v-8a5,5,0,0,1,5,-5z"></path><g id="node_text_33" transform="translate( 0 -1.7999999999999998 )" fill="black"><text id="kity_text_183" text-rendering="inherit" dominant-baseline="text-before-edge" dy="0" font-size="12" y="-6">Step：比async更轻量，在API的暴露下具有一致性</text></g></g><g id="minder_node_36" transform="matrix( 1 0 0 1 660 202 )"><g id="node_expander_30" display="none" transform="translate( -11 0 )" style="cursor: pointer;"><path id="kity_path_340" fill="white" stroke="gray" d="M6,0A6,6,0,1,1,-6,0A6,6,0,1,1,6,0"></path><path id="kity_path_341" fill="none" stroke="gray"></path></g><path id="node_outline_31" fill="transparent" stroke="none" d="M0,-9h72a5,5,0,0,1,5,5v8a5,5,0,0,1,-5,5h-72a5,5,0,0,1,-5,-5v-8a5,5,0,0,1,5,-5z"></path><g id="node_text_31" transform="translate( 0 -1.7999999999999998 )" fill="black"><text id="kity_text_179" text-rendering="inherit" dominant-baseline="text-before-edge" dy="0" font-size="12" y="-6">并行任务执行</text></g></g><g id="minder_node_37" transform="matrix( 1 0 0 1 660 228 )"><g id="node_expander_31" display="none" transform="translate( -11 0 )" style="cursor: pointer;"><path id="kity_path_343" fill="white" stroke="gray" d="M6,0A6,6,0,1,1,-6,0A6,6,0,1,1,6,0"></path><path id="kity_path_344" fill="none" stroke="gray"></path></g><path id="node_outline_32" fill="transparent" stroke="none" d="M0,-9h48a5,5,0,0,1,5,5v8a5,5,0,0,1,-5,5h-48a5,5,0,0,1,-5,-5v-8a5,5,0,0,1,5,-5z"></path><g id="node_text_32" transform="translate( 0 -1.7999999999999998 )" fill="black"><text id="kity_text_181" text-rendering="inherit" dominant-baseline="text-before-edge" dy="0" font-size="12" y="-6">结果分组</text></g></g><g id="minder_node_38" transform="matrix( 1 0 0 1 365 280 )"><g id="node_expander_36" transform="translate( -11 0 )" style="cursor: pointer;"><path id="kity_path_358" fill="white" stroke="gray" d="M6,0A6,6,0,1,1,-6,0A6,6,0,1,1,6,0"></path><path id="kity_path_359" fill="none" stroke="gray" d="M-4.5,0L4.5,0"></path></g><path id="node_outline_37" fill="transparent" stroke="none" d="M0,-9h291a5,5,0,0,1,5,5v8a5,5,0,0,1,-5,5h-291a5,5,0,0,1,-5,-5v-8a5,5,0,0,1,5,-5z"></path><g id="node_text_37" transform="translate( 0 -1.7999999999999998 )" fill="black"><text id="kity_text_191" text-rendering="inherit" dominant-baseline="text-before-edge" dy="0" font-size="12" y="-6">wind：赵劼开发，为JavaScript提供一个monadic扩展</text></g></g><g id="minder_node_39" transform="matrix( 1 0 0 1 682 254 )"><g id="node_expander_33" display="none" transform="translate( -11 0 )" style="cursor: pointer;"><path id="kity_path_349" fill="white" stroke="gray" d="M6,0A6,6,0,1,1,-6,0A6,6,0,1,1,6,0"></path><path id="kity_path_350" fill="none" stroke="gray"></path></g><path id="node_outline_34" fill="transparent" stroke="none" d="M0,-9h72a5,5,0,0,1,5,5v8a5,5,0,0,1,-5,5h-72a5,5,0,0,1,-5,-5v-8a5,5,0,0,1,5,-5z"></path><g id="node_text_34" transform="translate( 0 -1.7999999999999998 )" fill="black"><text id="kity_text_185" text-rendering="inherit" dominant-baseline="text-before-edge" dy="0" font-size="12" y="-6">异步任务定义</text></g></g><g id="minder_node_40" transform="matrix( 1 0 0 1 682 280 )"><g id="node_expander_34" display="none" transform="translate( -11 0 )" style="cursor: pointer;"><path id="kity_path_352" fill="white" stroke="gray" d="M6,0A6,6,0,1,1,-6,0A6,6,0,1,1,6,0"></path><path id="kity_path_353" fill="none" stroke="gray"></path></g><path id="node_outline_35" fill="transparent" stroke="none" d="M0,-9h97a5,5,0,0,1,5,5v8a5,5,0,0,1,-5,5h-97a5,5,0,0,1,-5,-5v-8a5,5,0,0,1,5,-5z"></path><g id="node_text_35" transform="translate( 0 -1.7999999999999998 )" fill="black"><text id="kity_text_187" text-rendering="inherit" dominant-baseline="text-before-edge" dy="0" font-size="12" y="-6">$await与任务模型</text></g></g><g id="minder_node_41" transform="matrix( 1 0 0 1 682 306 )"><g id="node_expander_35" display="none" transform="translate( -11 0 )" style="cursor: pointer;"><path id="kity_path_355" fill="white" stroke="gray" d="M6,0A6,6,0,1,1,-6,0A6,6,0,1,1,6,0"></path><path id="kity_path_356" fill="none" stroke="gray"></path></g><path id="node_outline_36" fill="transparent" stroke="none" d="M0,-9h120a5,5,0,0,1,5,5v8a5,5,0,0,1,-5,5h-120a5,5,0,0,1,-5,-5v-8a5,5,0,0,1,5,-5z"></path><g id="node_text_36" transform="translate( 0 -1.7999999999999998 )" fill="black"><text id="kity_text_189" text-rendering="inherit" dominant-baseline="text-before-edge" dy="0" font-size="12" y="-6">异步方法转换辅助函数</text></g></g><g id="minder_node_42" transform="matrix( 1 0 0 1 114 373 )"><g id="node_expander_44" transform="translate( -27 0 )" style="cursor: pointer;"><path id="kity_path_382" fill="white" stroke="gray" d="M6,0A6,6,0,1,1,-6,0A6,6,0,1,1,6,0"></path><path id="kity_path_383" fill="none" stroke="gray" d="M-4.5,0L4.5,0"></path></g><path id="node_outline_45" fill="rgb(246, 238, 238)" stroke="rgb(191, 115, 115)" d="M-17,-13h118a3,3,0,0,1,3,3v20a3,3,0,0,1,-3,3h-118a3,3,0,0,1,-3,-3v-20a3,3,0,0,1,3,-3z" stroke-width="1"></path><g id="node_text_45" transform="translate( 0 -2.1 )" fill="black"><text id="kity_text_207" text-rendering="inherit" dominant-baseline="text-before-edge" dy="0" font-size="14" y="-7">异步并发控制</text></g></g><g id="minder_node_43" transform="matrix( 1 0 0 1 239 354 )"><g id="node_expander_41" transform="translate( -11 0 )" style="cursor: pointer;"><path id="kity_path_373" fill="white" stroke="gray" d="M6,0A6,6,0,1,1,-6,0A6,6,0,1,1,6,0"></path><path id="kity_path_374" fill="none" stroke="gray" d="M-4.5,0L4.5,0"></path></g><path id="node_outline_42" fill="transparent" stroke="none" d="M0,-9h104a5,5,0,0,1,5,5v8a5,5,0,0,1,-5,5h-104a5,5,0,0,1,-5,-5v-8a5,5,0,0,1,5,-5z"></path><g id="node_text_42" transform="translate( 0 -1.7999999999999998 )" fill="black"><text id="kity_text_201" text-rendering="inherit" dominant-baseline="text-before-edge" dy="0" font-size="12" y="-6">bigpipe的解决方案</text></g></g><g id="minder_node_44" transform="matrix( 1 0 0 1 369 341 )"><g id="node_expander_39" display="none" transform="translate( -11 0 )" style="cursor: pointer;"><path id="kity_path_367" fill="white" stroke="gray" d="M6,0A6,6,0,1,1,-6,0A6,6,0,1,1,6,0"></path><path id="kity_path_368" fill="none" stroke="gray"></path></g><path id="node_outline_40" fill="transparent" stroke="none" d="M0,-9h48a5,5,0,0,1,5,5v8a5,5,0,0,1,-5,5h-48a5,5,0,0,1,-5,-5v-8a5,5,0,0,1,5,-5z"></path><g id="node_text_40" transform="translate( 0 -1.7999999999999998 )" fill="black"><text id="kity_text_197" text-rendering="inherit" dominant-baseline="text-before-edge" dy="0" font-size="12" y="-6">拒绝模式</text></g></g><g id="minder_node_45" transform="matrix( 1 0 0 1 369 367 )"><g id="node_expander_40" display="none" transform="translate( -11 0 )" style="cursor: pointer;"><path id="kity_path_370" fill="white" stroke="gray" d="M6,0A6,6,0,1,1,-6,0A6,6,0,1,1,6,0"></path><path id="kity_path_371" fill="none" stroke="gray"></path></g><path id="node_outline_41" fill="transparent" stroke="none" d="M0,-9h48a5,5,0,0,1,5,5v8a5,5,0,0,1,-5,5h-48a5,5,0,0,1,-5,-5v-8a5,5,0,0,1,5,-5z"></path><g id="node_text_41" transform="translate( 0 -1.7999999999999998 )" fill="black"><text id="kity_text_199" text-rendering="inherit" dominant-baseline="text-before-edge" dy="0" font-size="12" y="-6">超时控制</text></g></g><g id="minder_node_46" transform="matrix( 1 0 0 1 239 393 )"><g id="node_expander_43" transform="translate( -11 0 )" style="cursor: pointer;"><path id="kity_path_379" fill="white" stroke="gray" d="M6,0A6,6,0,1,1,-6,0A6,6,0,1,1,6,0"></path><path id="kity_path_380" fill="none" stroke="gray" d="M-4.5,0L4.5,0"></path></g><path id="node_outline_44" fill="transparent" stroke="none" d="M0,-9h92a5,5,0,0,1,5,5v8a5,5,0,0,1,-5,5h-92a5,5,0,0,1,-5,-5v-8a5,5,0,0,1,5,-5z"></path><g id="node_text_44" transform="translate( 0 -1.7999999999999998 )" fill="black"><text id="kity_text_205" text-rendering="inherit" dominant-baseline="text-before-edge" dy="0" font-size="12" y="-6">async的解决方案</text></g></g><g id="minder_node_47" transform="matrix( 1 0 0 1 357 393 )"><g id="node_expander_42" display="none" transform="translate( -11 0 )" style="cursor: pointer;"><path id="kity_path_376" fill="white" stroke="gray" d="M6,0A6,6,0,1,1,-6,0A6,6,0,1,1,6,0"></path><path id="kity_path_377" fill="none" stroke="gray"></path></g><path id="node_outline_43" fill="transparent" stroke="none" d="M0,-9h78a5,5,0,0,1,5,5v8a5,5,0,0,1,-5,5h-78a5,5,0,0,1,-5,-5v-8a5,5,0,0,1,5,-5z"></path><g id="node_text_43" transform="translate( 0 -1.7999999999999998 )" fill="black"><text id="kity_text_203" text-rendering="inherit" dominant-baseline="text-before-edge" dy="0" font-size="12" y="-6">parallelLimit()</text></g></g></g></g></svg>